PathFileType	4	(X/Y/Z)	P:\Projects\LMB_grand_challenge_database\project_only\opensim\experimental_data\SixthCompetition/DM_bouncy5_new.trc
DataRate	CameraRate	NumFrames	NumMarkers	Units	OrigDataRate	OrigDataStartFrame	OrigNumFrames
120	120	4	68	mm	120	85	342
Frame#	Time	Sternum			Neck			R_Shoulder			L_Shoulder			Xiphoid			Thoracic			R_Asis			L_Asis			R_Psis			L_Psis			Lumbar			R_Elbow			R_ElbowMedial			R_ShoulderAnterior			R_ShoulderPosterior			R_Wrist			R_Radius			R_Ulna			L_Elbow			L_ElbowMedial			L_ShoulderAnterior			L_ShoulderPosterior			L_Wrist			L_Ulna			L_Radius			L_Thigh_Superior			L_Thigh_Inferior			L_Thigh_Lateral			L_Knee_Lateral			L_Knee_Medial			L_Patella			L_Shank_Superior			L_Shank_Inferior			L_Shank_Lateral			L_Ankle_Lateral			L_Ankle_Medial			R_Thigh_Superior			R_Thigh_Inferior			R_Thigh_Lateral			R_Knee_Lateral			R_Knee_Medial			R_Patella			R_Shank_Superior			R_Shank_Inferior			R_Shank_Lateral			R_Ankle_Lateral			RankleMedial			R_Heel			R_Toe			R_Midfoot_Medial			R_Midfoot_Lateral			R_Hindfoot			R_Midfoot_Superior			R_ToeMedial			R_ToeLateral			L_Heel			L_Toe			L_Midfoot_Medial			L_Midfoot_Lateral			L_Hindfoot			L_Midfoot_Superior			L_ToeMedial			L_ToeLateral			Oglobal			Sacral			Xglobal			Yglobal			Zglobal			
		X1	Y1	Z1	X2	Y2	Z2	X3	Y3	Z3	X4	Y4	Z4	X5	Y5	Z5	X6	Y6	Z6	X7	Y7	Z7	X8	Y8	Z8	X9	Y9	Z9	X10	Y10	Z10	X11	Y11	Z11	X12	Y12	Z12	X13	Y13	Z13	X14	Y14	Z14	X15	Y15	Z15	X16	Y16	Z16	X17	Y17	Z17	X18	Y18	Z18	X19	Y19	Z19	X20	Y20	Z20	X21	Y21	Z21	X22	Y22	Z22	X23	Y23	Z23	X24	Y24	Z24	X25	Y25	Z25	X26	Y26	Z26	X27	Y27	Z27	X28	Y28	Z28	X29	Y29	Z29	X30	Y30	Z30	X31	Y31	Z31	X32	Y32	Z32	X33	Y33	Z33	X34	Y34	Z34	X35	Y35	Z35	X36	Y36	Z36	X37	Y37	Z37	X38	Y38	Z38	X39	Y39	Z39	X40	Y40	Z40	X41	Y41	Z41	X42	Y42	Z42	X43	Y43	Z43	X44	Y44	Z44	X45	Y45	Z45	X46	Y46	Z46	X47	Y47	Z47	X48	Y48	Z48	X49	Y49	Z49	X50	Y50	Z50	X51	Y51	Z51	X52	Y52	Z52	X53	Y53	Z53	X54	Y54	Z54	X55	Y55	Z55	X56	Y56	Z56	X57	Y57	Z57	X58	Y58	Z58	X59	Y59	Z59	X60	Y60	Z60	X61	Y61	Z61	X62	Y62	Z62	X63	Y63	Z63	X64	Y64	Z64	X65	Y65	Z65	X66	Y66	Z66	X67	Y67	Z67	X68	Y68	Z68	

86	1.566667	-306.54	1339.42	141.936	-462.538	1428.94	154.424	-345.187	1371.57	317.204	-395.97	1366.16	-27.6243	-301.326	1169.79	153.613	-567.973	1255.56	160.1	-417.765	941.477	296.167	-400.842	953.59	22.2409	-610.5309999999999	1006.91	179.581	-607.846	1003.21	102.671	-601.654	1053.73	146.139	-398.403	1060.3	421.84	-0	0	0	-0	0	0	-0	0	0	-327.414	793.822	391.56	-326.829	804.366	348.506	-373.77	792.828	401.62	-427.897	1029.32	-118.48	-0	0	0	-0	0	0	-0	0	0	-354.495	769.235	-113.003	-400.435	780.678	-128.54	-357.299	785.158	-66.6893	-434.584	788.0309999999999	-9.001110000000001	-343.669	584.977	47.8077	-322.844	682.92	64.2332	-0	0	0	-0	0	0	-274.925	509.728	115.13	-358.732	434.003	47.1217	-438.038	175.517	49.426	-371.237	292.729	122.31	-0	0	0	-0	0	0	-488.587	765.926	327.541	-440.344	555.36	301.582	-390.391	690.028	317.44	-0	0	0	-0	0	0	-357.2	451.303	248.092	-541.545	443.13	309.356	-688.6900000000001	299.028	293.286	-546.307	330.964	236.59	-0	0	0	-0	0	0	-828.611	264.367	227.237	-638.795	36.6934	273.376	-697.545	76.6237	207.483	-725.752	89.4053	320.591	-797.96	169.769	291.582	-679.891	181.536	260.239	-664.75	51.4219	224.192	-684.593	60.2026	312.582	-537.091	62.2851	103.016	-235.962	52.2109	103.552	-319.419	31.6725	156.396	-328.96	30.0363	42.3245	-434.191	26.6232	48.4715	-372.052	117.353	100.501	-274.875	35.3434	146.612	-272.957	35.324	52.0137	-0	0	0	-609.189	1005.06	141.126	-200	0	0	-0	0	200	-0	200	0	
87	1.575	-298.324	1342.57	143.022	-454.563	1431.75	154.015	-338.557	1374.65	317.758	-385.875	1369.62	-27.3277	-292.904	1172.92	154.301	-559.639	1258.28	158.825	-409.735	944.4880000000001	295.763	-391.491	956.794	21.7856	-602.067	1009.66	178.312	-598.949	1006.02	101.281	-593.076	1056.52	144.834	-393.834	1063.45	422.739	-0	0	0	-0	0	0	-0	0	0	-320.758	797.951	393.316	-318.97	808.255	350.876	-367.162	796.359	402.418	-411.392	1032.79	-119.246	-0	0	0	-0	0	0	-0	0	0	-331.176	774.607	-111.504	-377.044	784.885	-128.057	-335.525	790.5069999999999	-65.3511	-426.284	790.9640000000001	-8.89283	-340.989	585.191	47.8498	-317.958	683.002	64.7983	-0	0	0	-0	0	0	-273.048	510.178	115.098	-358.146	434.037	46.9479	-437.99	175.671	49.2482	-370.781	292.717	122.052	-0	0	0	-0	0	0	-479.488	769.807	327.35	-425.278	559.83	301.688	-378.195	695.379	317.431	-0	0	0	-0	0	0	-339.898	457.576	248.231	-524.121	444.719	309.293	-666.601	295.501	293.433	-523.5170000000001	331.461	237.205	-0	0	0	-0	0	0	-805.513	255.192	227.37	-606.251	35.9693	271.083	-667.109	72.8676	206.913	-695.369	84.4054	320.142	-770.8099999999999	161.913	291.433	-654.039	178.643	259.593	-632.8390000000001	49.7068	222.331	-652.578	56.6585	310.531	-536.568	62.104	103.362	-236.029	52.3339	103.771	-318.648	31.8133	155.908	-328.577	30.4844	41.8656	-434.171	26.7484	48.4132	-372.023	117.416	100.448	-274.877	35.3292	146.658	-272.884	35.2316	52.0017	-0	0	0	-600.508	1007.84	139.797	-200	0	0	-0	0	200	-0	200	0	
88	1.583333	-290.137	1345.69	143.924	-446.624	1434.58	153.706	-332.062	1377.81	318.47	-375.889	1373.17	-26.7758	-284.591	1175.99	155.003	-551.295	1260.95	157.519	-402.004	947.569	295.825	-382.226	959.708	21.4992	-593.712	1012.4	177.172	-590.131	1008.72	99.9546	-584.628	1059.27	143.575	-389.157	1066.75	423.784	-0	0	0	-0	0	0	-0	0	0	-313.961	801.723	395.206	-311.247	811.953	353.149	-361.181	799.778	403.806	-394.956	1036.24	-119.971	-0	0	0	-0	0	0	-0	0	0	-307.912	780.338	-109.982	-353.139	788.753	-126.124	-313.65	796.327	-63.951	-417.988	793.189	-8.687239999999999	-338.44	585.418	47.8791	-313.412	683.22	65.1921	-0	0	0	-0	0	0	-270.863	510.633	115.046	-357.607	434.184	46.6617	-437.866	175.766	49.1696	-370.353	292.21	122.455	-0	0	0	-0	0	0	-468.177	773.106	325.035	-410.897	564.425	301.393	-366.179	700.774	317.236	-0	0	0	-0	0	0	-323.383	464.233	247.964	-506.486	445.673	309.821	-643.848	291.831	293.862	-502.676	333.376	236.927	-0	0	0	-0	0	0	-781.782	245.574	227.771	-573.018	35.4363	269.184	-635.379	69.77630000000001	205.918	-663.24	79.8593	319.384	-743.116	153.534	291.772	-626.77	175.985	258.667	-600.849	47.9702	220.783	-619.95	53.7315	308.911	-535.878	61.5743	103.643	-235.693	51.9119	104.853	-317.679	32.0887	155.481	-327.935	30.9955	41.4649	-434.193	26.697	48.4348	-371.998	117.455	100.394	-274.864	35.3523	146.644	-272.891	35.263	52.0102	-0	0	0	-591.921	1010.56	138.563	-200	0	0	-0	0	200	-0	200	0	
89	1.591667	-281.95	1348.82	144.912	-438.838	1437.26	153.561	-325.456	1380.68	319.313	-366.24	1376.7	-26.62	-276.257	1178.99	155.688	-543.076	1263.45	156.407	-393.923	950.41	295.532	-373.112	962.5549999999999	21.389	-585.259	1015.07	176.186	-581.403	1011.39	98.9263	-576.0700000000001	1061.93	142.632	-384.705	1069.91	424.133	-0	0	0	-0	0	0	-0	0	0	-307.445	805.22	397.236	-303.389	815.597	355.66	-355.06	803.0890000000001	405.057	-378.444	1039.83	-120.518	-0	0	0	-0	0	0	-0	0	0	-284.953	786.169	-107.953	-329.868	793.2329999999999	-125.335	-291.636	802.271	-62.409	-409.883	794.96	-8.40105	-335.843	585.647	47.9263	-309.05	683.357	65.4525	-0	0	0	-0	0	0	-268.895	510.852	115.331	-357.303	434.308	46.4289	-437.771	175.916	49.1861	-370.605	292.313	122.177	-0	0	0	-0	0	0	-457.682	776.013	323.895	-396.864	568.951	302.008	-354.625	706.148	317.339	-0	0	0	-0	0	0	-306.957	470.814	247.894	-489.075	446.317	310.013	-621.086	287.405	294.108	-482.151	334.688	236.568	-0	0	0	-0	0	0	-758.208	236.006	229.301	-539.45	34.9735	267.739	-603.578	67.9024	203.869	-631.4	74.6648	317.591	-714.454	145.213	291.243	-599.3869999999999	173.281	258.525	-568.145	47.3732	218.412	-586.971	50.868	307.777	-536.169	61.894	103.514	-236.332	50.7035	105.182	-318.071	31.9948	155.545	-328.239	30.8475	41.5212	-434.211	26.8747	48.4044	-371.95	117.511	100.354	-274.904	35.2765	146.609	-272.932	35.2454	51.9927	-0	0	0	-583.331	1013.23	137.556	-200	0	0	-0	0	200	-0	200	0	
